Coordinates
version=1
nRows=5
nColumns=42
inDegrees=yes

Units are S.I. units (second, meters, Newtons, ...)
If the header above contains a line with 'inDegrees', this indicates whether rotational values are in degrees (yes) or radians (no).

endheader
time	pelvis_tilt	pelvis_list	pelvis_rotation	pelvis_tx	pelvis_ty	pelvis_tz	hip_flexion_r	hip_adduction_r	hip_rotation_r	knee_angle_r	knee_adduction_r	knee_angle_r_beta	ankle_angle_r	subtalar_angle_r	mtp_angle_r	hip_flexion_l	hip_adduction_l	hip_rotation_l	knee_angle_l	knee_adduction_l	knee_angle_l_beta	ankle_angle_l	subtalar_angle_l	mtp_angle_l	lumbar_extension	lumbar_bending	lumbar_rotation	arm_flex_r	arm_add_r	arm_rot_r	elbow_flex_r	pro_sup_r	wrist_flex_r	wrist_dev_r	arm_flex_l	arm_add_l	arm_rot_l	elbow_flex_l	pro_sup_l	wrist_flex_l	wrist_dev_l
      6.00000000	      7.87998195	     -4.06578943	     -5.58519617	      0.51210111	      0.95213050	     -0.15212786	      5.78244530	     -9.69688457	    -15.83405689	     37.93080554	      4.91338537	      0.66201744	      6.17183209	      4.15879937	     -7.50260801	     -2.74702395	     -3.32399153	    -21.63931911	     23.06259982	      2.80151017	      0.40251830	     17.11015652	      2.42870014	     -7.50260801	    -18.00517593	      1.27093523	     -0.29383237	      7.15728033	     -7.30681393	      0.63555852	     36.72583684	     90.00000001	      0.00000000	      0.00000000	    -14.11143000	    -10.87716021	     -2.85581157	     48.80831472	     90.00000001	      0.00000000	      0.00000000
      6.01000000	      7.93921618	     -4.21716317	     -5.64799418	      0.51340521	      0.95231585	     -0.15177615	      5.93317571	     -9.44835229	    -16.05389102	     36.69664923	      5.06832346	      0.64047735	      6.42923892	      5.20817879	     -7.50254027	     -2.97343419	     -3.54133366	    -21.55089991	     23.04688242	      2.99822832	      0.40224398	     17.17201451	      2.10651556	     -7.50254027	    -18.15043560	      1.33458256	     -0.17358205	      7.18609822	     -7.23628426	      0.25577286	     36.43162268	     90.00000001	      0.00000000	      0.00000000	    -14.03843277	    -10.81538779	     -2.87607298	     48.68445376	     90.00000001	      0.00000000	      0.00000000
      6.02000000	      7.86901895	     -4.25761632	     -5.72585051	      0.51463101	      0.95219668	     -0.15157366	      6.28509531	     -9.32692459	    -16.17878708	     35.51160549	      5.26277581	      0.61979444	      6.58742871	      6.19198925	     -7.50247513	     -2.99518286	     -3.55996089	    -21.44215499	     23.04542169	      3.01903511	      0.40221849	     17.24225031	      1.87720603	     -7.50247513	    -18.14908967	      1.31173270	     -0.09057997	      7.17641174	     -7.22524828	      0.03027371	     36.24295878	     90.00000001	      0.00000000	      0.00000000	    -14.01498169	    -10.77437313	     -2.87672049	     48.62153666	     90.00000001	      0.00000000	      0.00000000
      6.03000000	      7.71189557	     -4.20054877	     -5.84852336	      0.51577437	      0.95186683	     -0.15136733	      6.82085563	     -9.31577143	    -16.19128175	     34.45387073	      5.50365854	      0.60133348	      6.61620184	      6.69570993	     -7.50245440	     -2.88715098	     -3.44340945	    -21.38835636	     23.05075402	      2.95989701	      0.40231155	     17.32012903	      1.80497009	     -7.50245440	    -18.04815624	      1.19869981	     -0.00852343	      7.13322601	     -7.24750360	     -0.02086573	     36.16404398	     90.00000001	      0.00000000	      0.00000000	    -14.01937570	    -10.75138711	     -2.87064025	     48.63218437	     90.00000001	      0.00000000	      0.00000000
      6.04000000	      7.58603708	     -4.20997523	     -5.94847177	      0.51691290	      0.95162711	     -0.15106910	      7.23578467	     -9.21884704	    -16.14373944	     33.24450907	      5.83705328	      0.58022614	      6.62285829	      7.53518161	     -7.50243211	     -2.80557713	     -3.44119203	    -21.33600664	     23.11340807	      2.93512284	      0.40340507	     17.42434926	      1.65143664	     -7.50243211	    -17.99652397	      1.14233408	      0.07510267	      7.11835683	     -7.27433364	     -0.12090414	     36.02913214	     90.00000001	      0.00000000	      0.00000000	    -13.98295703	    -10.70789922	     -2.86230385	     48.55309124	     90.00000001	      0.00000000	      0.00000000
